<svg viewBox="0 0 200 200" xmlns="http://www.w3.org/2000/svg">
  <mask id="mask0" mask-type="alpha">
      <path fill="#000000" d="M50.8,-67.9C64.2,-60.3,72.1,-43.1,74.8,-26.3C77.5,-9.5,
      74.9,7,69.1,21.7C63.3,36.4,54.2,49.3,42.2,61.1C30.1,73,15.1,83.8,0.2,83.6C-14.7,
      83.4,-29.5,72.1,-42.4,60.5C-55.3,49,-66.4,37.1,-74.8,21.8C-83.2,6.5,-89,-12.1,
      -85.2,-28.9C-81.4,-45.6,-68,-60.4,-52.2,-67.3C-36.5,-74.1,-18.2,-73,0.3,
      -73.4C18.7,-73.7,37.5,-75.6,50.8,-67.9Z" transform="translate(100 100)" />
   </mask>
   <g mask="url(#mask0)">
      <path fill="#000000" d="M50.8,-67.9C64.2,-60.3,72.1,-43.1,74.8,-26.3C77.5,-9.5,
      74.9,7,69.1,21.7C63.3,36.4,54.2,49.3,42.2,61.1C30.1,73,15.1,83.8,0.2,83.6C-14.7,
      83.4,-29.5,72.1,-42.4,60.5C-55.3,49,-66.4,37.1,-74.8,21.8C-83.2,6.5,-89,-12.1,
      -85.2,-28.9C-81.4,-45.6,-68,-60.4,-52.2,-67.3C-36.5,-74.1,-18.2,-73,0.3,
      -73.4C18.7,-73.7,37.5,-75.6,50.8,-67.9Z" transform="translate(100 100)" />
   <image xmlns:href=""/>
  </g>
</svg>
